<!-- Generated by IcoMoon.io -->
<svg version="1.1" xmlns="http://www.w3.org/2000/svg" width="32" height="32" viewBox="0 0 32 32">
<title>bilibili-line</title>
<path d="M9.563 3.676l4.323 4.324h4.228l4.324-4.323c0.241-0.241 0.575-0.391 0.943-0.391 0.737 0 1.334 0.597 1.334 1.334 0 0.368-0.149 0.702-0.391 0.943v0l-2.439 2.436h2.781c2.577 0 4.667 2.089 4.667 4.667v0 10.667c0 2.577-2.089 4.667-4.667 4.667h-17.333c-2.577 0-4.667-2.089-4.667-4.667v0-10.667c0-2.577 2.089-4.667 4.667-4.667h2.78l-2.437-2.439c-0.241-0.241-0.391-0.575-0.391-0.943 0-0.737 0.597-1.334 1.334-1.334 0.368 0 0.702 0.149 0.943 0.391v0zM24.667 10.667h-17.333c-1.037 0-1.889 0.789-1.99 1.8l-0.001 0.008-0.009 0.192v10.667c0 1.037 0.789 1.89 1.8 1.99l0.008 0.001 0.192 0.009h17.333c1.037-0 1.89-0.789 1.99-1.8l0.001-0.008 0.009-0.192v-10.667c0-1.105-0.895-2-2-2v0zM10.667 14.667c0.736 0 1.333 0.597 1.333 1.333v0 2.667c-0 0.736-0.597 1.333-1.333 1.333s-1.333-0.597-1.333-1.333v0-2.667c0-0.736 0.597-1.333 1.333-1.333v0zM21.333 14.667c0.736 0 1.333 0.597 1.333 1.333v0 2.667c-0 0.736-0.597 1.333-1.333 1.333s-1.333-0.597-1.333-1.333v0-2.667c0-0.736 0.597-1.333 1.333-1.333v0z"></path>
</svg>
