<!-- Generated by IcoMoon.io -->
<svg version="1.1" xmlns="http://www.w3.org/2000/svg" width="32" height="32" viewBox="0 0 32 32">
<title>github</title>
<path d="M16 1.333c-0.044-0-0.096-0.001-0.148-0.001-7.963 0-14.429 6.41-14.519 14.352l-0 0.008c0.032 6.36 4.186 11.741 9.925 13.611l0.102 0.029c0.733 0.133 1-0.307 1-0.693v-2.44c-4.080 0.867-4.947-1.92-4.947-1.92-0.283-0.892-0.858-1.623-1.611-2.097l-0.016-0.009c-1.333-0.88 0.107-0.867 0.107-0.867 0.957 0.131 1.763 0.686 2.232 1.466l0.008 0.014c0.556 0.952 1.573 1.581 2.737 1.581 0.561 0 1.088-0.146 1.545-0.403l-0.016 0.008c0.080-0.759 0.422-1.426 0.932-1.919l0.001-0.001c-3.253-0.36-6.667-1.587-6.667-7.093-0.001-0.033-0.001-0.073-0.001-0.112 0-1.457 0.563-2.783 1.484-3.771l-0.003 0.003c-0.19-0.51-0.3-1.098-0.3-1.713 0-0.752 0.165-1.465 0.459-2.105l-0.013 0.031s1.24-0.387 4 1.467c1.1-0.305 2.363-0.48 3.667-0.48s2.567 0.175 3.767 0.503l-0.1-0.023c2.8-1.853 4-1.467 4-1.467 0.282 0.609 0.447 1.323 0.447 2.074 0 0.614-0.11 1.203-0.311 1.748l0.011-0.035c0.965 0.995 1.56 2.353 1.56 3.851 0 0.001 0 0.002 0 0.002v-0c0 5.52-3.44 6.733-6.667 7.093 0.624 0.606 1.011 1.454 1.011 2.392 0 0.097-0.004 0.193-0.012 0.287l0.001-0.012v3.933c0 0.467 0.267 0.84 1 0.693 5.823-1.91 9.961-7.28 10-13.622l0-0.005c-0.090-7.95-6.556-14.361-14.519-14.361-0.052 0-0.104 0-0.155 0.001l0.008-0"></path>
</svg>
