<!-- Generated by IcoMoon.io -->
<svg version="1.1" xmlns="http://www.w3.org/2000/svg" width="32" height="32" viewBox="0 0 32 32">
<title>jianli</title>
<path d="M15.45 12.447c0.683 0 1.231-0.553 1.231-1.231v-3.223c0-0.683-0.553-1.231-1.231-1.231h-5.91c-0.683 0-1.231 0.553-1.231 1.231v3.223c0 0.683 0.553 1.231 1.231 1.231h5.91zM9.444 11.216v-3.223c0-0.051 0.040-0.096 0.096-0.096h5.91c0.051 0 0.096 0.040 0.096 0.096v3.223c0 0.051-0.040 0.096-0.096 0.096h-5.91c-0.051 0-0.096-0.040-0.096-0.096zM28.139 8.416c0-0.006 0-0.006 0 0-0.006-0.028-0.006-0.056-0.011-0.085s-0.011-0.051-0.023-0.079c0-0.006 0-0.006-0.006-0.011-0.006-0.023-0.017-0.045-0.023-0.073 0-0.006-0.006-0.011-0.006-0.017-0.006-0.017-0.017-0.034-0.028-0.051-0.006-0.006-0.011-0.017-0.011-0.023-0.011-0.017-0.017-0.028-0.028-0.045-0.006-0.011-0.011-0.017-0.017-0.028-0.011-0.011-0.017-0.023-0.028-0.034-0.006-0.011-0.017-0.017-0.023-0.023l-0.045-0.045-7.18-6.627c-0.011-0.006-0.017-0.017-0.028-0.023s-0.017-0.017-0.028-0.023c-0.011-0.006-0.023-0.017-0.034-0.023s-0.017-0.011-0.028-0.017c-0.011-0.006-0.023-0.011-0.034-0.023-0.011-0.006-0.017-0.011-0.028-0.011-0.011-0.006-0.028-0.011-0.040-0.017s-0.017-0.006-0.028-0.011-0.028-0.011-0.040-0.017c-0.011-0.006-0.023-0.006-0.034-0.006-0.011-0.006-0.028-0.006-0.040-0.011-0.011 0-0.028-0.006-0.040-0.006s-0.023-0.006-0.034-0.006c-0.028 0-0.051-0.006-0.085-0.006h-15.506c-0.457 0-0.83 0.373-0.83 0.83v28.201c0 0.457 0.373 0.83 0.83 0.83h22.635c0.457 0 0.83-0.373 0.83-0.83v-21.614c-0.006-0.028-0.011-0.056-0.011-0.079zM20.998 3.793l4.194 3.872h-4.194v-3.872zM5.515 29.274v-26.542h13.83v5.763c0 0.457 0.373 0.83 0.83 0.83h6.316v19.949h-20.976zM22.906 23.9h-13.271c-0.367 0-0.79 0.226-0.79 0.672 0 0.373 0.327 0.672 0.79 0.672h13.463c0.519 0 0.598-0.248 0.598-0.672-0.006-0.412-0.169-0.672-0.79-0.672zM22.906 17.798h-6.875c-0.367 0-0.79 0.226-0.79 0.672 0 0.373 0.327 0.672 0.79 0.672h7.067c0.519 0 0.598-0.248 0.598-0.672-0.006-0.412-0.169-0.672-0.79-0.672z"></path>
</svg>
