<!-- Generated by IcoMoon.io -->
<svg version="1.1" xmlns="http://www.w3.org/2000/svg" width="32" height="32" viewBox="0 0 32 32">
<title>sousuo</title>
<path d="M29.195 27.645l-6.124-5.909 0.057-0.072c1.649-2.042 2.557-4.613 2.557-7.237 0-6.366-5.179-11.546-11.544-11.546-6.367 0-11.547 5.18-11.547 11.546s5.18 11.546 11.547 11.546c2.79 0 5.485-1.014 7.589-2.853l0.069-0.060 6.109 5.843h0.061l0.001 0.051c0.155 0.109 0.329 0.166 0.518 0.166 0.506 0 0.916-0.412 0.916-0.916-0-0.194-0.070-0.383-0.21-0.558zM14.142 24.138c-5.355 0-9.711-4.356-9.711-9.711s4.356-9.709 9.711-9.709c5.353 0 9.709 4.355 9.709 9.709s-4.356 9.711-9.709 9.711z"></path>
</svg>
