<!-- Generated by IcoMoon.io -->
<svg version="1.1" xmlns="http://www.w3.org/2000/svg" width="32" height="32" viewBox="0 0 32 32">
<title>shouye</title>
<path d="M3.064 15.007c-0.316 0-0.627-0.149-0.821-0.428-0.316-0.453-0.204-1.076 0.249-1.392l12.939-9.013c0.159-0.112 0.358-0.179 0.572-0.179 0.226 0 0.435 0.075 0.603 0.202l-0.003-0.002 12.004 9.013c0.442 0.332 0.531 0.958 0.199 1.4s-0.958 0.531-1.4 0.199l-11.426-8.579-12.345 8.6c-0.159 0.112-0.357 0.18-0.57 0.18-0 0-0 0-0.001 0h0zM25.976 28.989h-6.96c-0.552 0-1-0.448-1-1v-6.99h-4.012v6.99c0 0.552-0.448 1-1 1h-7.11c-0.552 0-1-0.448-1-1v-11.952c0-0.552 0.448-1 1-1s1 0.448 1 1v10.952h5.11v-6.99c0-0.552 0.448-1 1-1h6.012c0.552 0 1 0.448 1 1v6.99h4.96v-10.952c0-0.552 0.448-1 1-1s1 0.448 1 1v11.952c-0 0.552-0.448 1-1 1z"></path>
</svg>
