<!-- Generated by IcoMoon.io -->
<svg version="1.1" xmlns="http://www.w3.org/2000/svg" width="32" height="32" viewBox="0 0 32 32">
<title>gf-tags</title>
<path d="M27.098 16.155l-13-13c-0.3-0.302-0.715-0.488-1.174-0.488-0.002 0-0.003 0-0.005 0h-11.252c-0.92 0.001-1.666 0.747-1.667 1.667v11.253c0 0.001 0 0.003 0 0.005 0 0.459 0.187 0.874 0.488 1.174l13 13c0.302 0.302 0.718 0.488 1.179 0.488s0.877-0.187 1.179-0.488l11.252-11.252c0.301-0.302 0.487-0.718 0.487-1.179s-0.186-0.877-0.487-1.179l0 0zM10.667 10.667c0 1.473-1.194 2.667-2.667 2.667s-2.667-1.194-2.667-2.667c0-1.473 1.194-2.667 2.667-2.667v0c1.472 0.002 2.665 1.195 2.667 2.666v0zM31.098 18.512l-11.96 11.96c-0.121 0.121-0.287 0.195-0.471 0.195-0.368 0-0.667-0.299-0.667-0.667 0-0.184 0.075-0.351 0.195-0.471l11.96-11.96c0.060-0.060 0.098-0.144 0.098-0.236s-0.037-0.175-0.098-0.236l-13.293-13.293c-0.121-0.121-0.195-0.287-0.195-0.471 0-0.368 0.299-0.667 0.667-0.667 0.184 0 0.351 0.075 0.471 0.195l13.293 13.293c0.301 0.302 0.487 0.718 0.487 1.179s-0.186 0.877-0.487 1.179l0-0z"></path>
</svg>
