<!-- Generated by IcoMoon.io -->
<svg version="1.1" xmlns="http://www.w3.org/2000/svg" width="32" height="32" viewBox="0 0 32 32">
<title>tupian</title>
<path d="M27.394 26.909c0.201 0 0.364-0.163 0.364-0.364v0-21.091c0-0.201-0.163-0.364-0.364-0.364v0h-22.545c-0.201 0-0.364 0.163-0.364 0.364v0 21.091c0 0.201 0.163 0.364 0.364 0.364h22.545zM27.394 29.091h-22.545c-1.406 0-2.545-1.14-2.545-2.545v-21.091c0-1.406 1.14-2.545 2.545-2.545h22.545c1.406 0 2.545 1.14 2.545 2.545v21.091c0 1.406-1.14 2.545-2.545 2.545v0zM4.039 21.881l-1.475-1.607 5.705-5.234c0.451-0.415 1.057-0.67 1.721-0.67 0.713 0 1.358 0.293 1.82 0.765l0 0 4.959 5.073c0.066 0.068 0.158 0.11 0.26 0.11 0.092 0 0.175-0.034 0.239-0.090l-0 0 2.942-2.556c0.444-0.388 1.029-0.624 1.669-0.624 0.654 0 1.251 0.247 1.702 0.653l-0.002-0.002 5.988 5.374-1.457 1.624-5.989-5.375c-0.064-0.057-0.149-0.093-0.242-0.093-0.091 0-0.175 0.034-0.239 0.089l0-0-2.942 2.556c-0.444 0.388-1.029 0.624-1.67 0.624-0.713 0-1.358-0.293-1.82-0.766l-0-0-4.959-5.073c-0.066-0.067-0.158-0.109-0.26-0.109-0.095 0-0.181 0.036-0.246 0.096l0-0-5.705 5.234zM19.636 10.545c0 1.004 0.814 1.818 1.818 1.818s1.818-0.814 1.818-1.818v0c0-1.004-0.814-1.818-1.818-1.818s-1.818 0.814-1.818 1.818v0z"></path>
</svg>
